HIERARCHY
ROOT Hips
{
  OFFSET 5.84602e-005 68.8428 3.50346
  CHANNELS 6 Xposition Yposition Zposition Zrotation Xrotation Yrotation
  JOINT Spine
  {
    OFFSET 0 8.597 -4.6522
    CHANNELS 3 Zrotation Xrotation Yrotation
    JOINT Spine1
    {
      OFFSET 0 7.8454 0.4098
      CHANNELS 3 Zrotation Xrotation Yrotation
      JOINT Spine2
      {
        OFFSET 0 9.7078 -2.1609
        CHANNELS 3 Zrotation Xrotation Yrotation
        JOINT Neck
        {
          OFFSET 0 21.8761 -0.4549
          CHANNELS 3 Zrotation Xrotation Yrotation
          JOINT Head
          {
            OFFSET 0 12.3537 3.3602
            CHANNELS 3 Zrotation Xrotation Yrotation
            End Site
            {
              OFFSET 0.0001 18.9506 0.5657
            }
          }
        }
        JOINT LeftShoulder
        {
          OFFSET 2.2086 21.1115 7.2329
          CHANNELS 3 Zrotation Xrotation Yrotation
          JOINT LeftArm
          {
            OFFSET 13.1193 3.0282 -4.8998
            CHANNELS 3 Zrotation Xrotation Yrotation
            JOINT LeftForeArm
            {
              OFFSET 27.4081 -0.0973053 -0.2375
              CHANNELS 3 Zrotation Xrotation Yrotation
              JOINT LeftHand
              {
                OFFSET 22.8641 0.0662994 -0.1369
                CHANNELS 3 Zrotation Xrotation Yrotation
                JOINT LeftHandIndex1
                {
                  OFFSET 8.8614 0.775009 2.4612
                  CHANNELS 3 Zrotation Xrotation Yrotation
                  JOINT LeftHandIndex2
                  {
                    OFFSET 3.3146 -0.808304 0.5841
                    CHANNELS 3 Zrotation Xrotation Yrotation
                    JOINT LeftHandIndex3
                    {
                      OFFSET 2.2628 -0.552002 0.3989
                      CHANNELS 3 Zrotation Xrotation Yrotation
                      End Site
                      {
                        OFFSET 1.6102 -0.4807 0.2612
                      }
                    }
                  }
                }
                JOINT LeftHandMiddle1
                {
                  OFFSET 8.9937 0.895004 0.2143
                  CHANNELS 3 Zrotation Xrotation Yrotation
                  JOINT LeftHandMiddle2
                  {
                    OFFSET 4.0984 0.0113983 -0.0242
                    CHANNELS 3 Zrotation Xrotation Yrotation
                    JOINT LeftHandMiddle3
                    {
                      OFFSET 2.2716 0.00689697 -0.0138001
                      CHANNELS 3 Zrotation Xrotation Yrotation
                      End Site
                      {
                        OFFSET 2.0404 -0.1441 0.0027
                      }
                    }
                  }
                }
                JOINT LeftHandRing1
                {
                  OFFSET 8.5234 0.597198 -2.0164
                  CHANNELS 3 Zrotation Xrotation Yrotation
                  JOINT LeftHandRing2
                  {
                    OFFSET 3.7188 -0.188293 -0.2328
                    CHANNELS 3 Zrotation Xrotation Yrotation
                    JOINT LeftHandRing3
                    {
                      OFFSET 2.1191 -0.106598 -0.1332
                      CHANNELS 3 Zrotation Xrotation Yrotation
                      End Site
                      {
                        OFFSET 1.8737 -0.2304 -0.0886
                      }
                    }
                  }
                }
                JOINT LeftHandPinky1
                {
                  OFFSET 7.9094 -0.601089 -3.4825
                  CHANNELS 3 Zrotation Xrotation Yrotation
                  JOINT LeftHandPinky2
                  {
                    OFFSET 2.2874 -0.477005 -0.6314
                    CHANNELS 3 Zrotation Xrotation Yrotation
                    JOINT LeftHandPinky3
                    {
                      OFFSET 1.6774 -0.349396 -0.4633
                      CHANNELS 3 Zrotation Xrotation Yrotation
                      End Site
                      {
                        OFFSET 1.4888 -0.4091 -0.3416
                      }
                    }
                  }
                }
                JOINT LeftHandThumb1
                {
                  OFFSET 1.833 -1.3875 1.3896
                  CHANNELS 3 Zrotation Xrotation Yrotation
                  JOINT LeftHandThumb2
                  {
                    OFFSET 3.4129 -1.121 2.5732
                    CHANNELS 3 Zrotation Xrotation Yrotation
                    JOINT LeftHandThumb3
                    {
                      OFFSET 2.2474 -0.804199 1.6192
                      CHANNELS 3 Zrotation Xrotation Yrotation
                      End Site
                      {
                        OFFSET 1.6527 -0.5689 1.1317
                      }
                    }
                  }
                }
              }
            }
          }
        }
        JOINT RightShoulder
        {
          OFFSET -2.2086 21.1115 7.2329
          CHANNELS 3 Zrotation Xrotation Yrotation
          JOINT RightArm
          {
            OFFSET -13.1216 3.0287 -4.9007
            CHANNELS 3 Zrotation Xrotation Yrotation
            JOINT RightForeArm
            {
              OFFSET -27.4081 -0.0973053 -0.2375
              CHANNELS 3 Zrotation Xrotation Yrotation
              JOINT RightHand
              {
                OFFSET -22.8641 0.0664063 -0.1369
                CHANNELS 3 Zrotation Xrotation Yrotation
                JOINT RightHandIndex1
                {
                  OFFSET -8.8614 0.774994 2.4612
                  CHANNELS 3 Zrotation Xrotation Yrotation
                  JOINT RightHandIndex2
                  {
                    OFFSET -3.3146 -0.808304 0.5841
                    CHANNELS 3 Zrotation Xrotation Yrotation
                    JOINT RightHandIndex3
                    {
                      OFFSET -2.2628 -0.552002 0.3989
                      CHANNELS 3 Zrotation Xrotation Yrotation
                      End Site
                      {
                        OFFSET -1.6102 -0.4807 0.2612
                      }
                    }
                  }
                }
                JOINT RightHandMiddle1
                {
                  OFFSET -8.9937 0.894989 0.2143
                  CHANNELS 3 Zrotation Xrotation Yrotation
                  JOINT RightHandMiddle2
                  {
                    OFFSET -4.0984 0.0113983 -0.0242
                    CHANNELS 3 Zrotation Xrotation Yrotation
                    JOINT RightHandMiddle3
                    {
                      OFFSET -2.2716 0.00691223 -0.0138001
                      CHANNELS 3 Zrotation Xrotation Yrotation
                      End Site
                      {
                        OFFSET -2.0404 -0.1441 0.0027
                      }
                    }
                  }
                }
                JOINT RightHandRing1
                {
                  OFFSET -8.5234 0.597198 -2.0164
                  CHANNELS 3 Zrotation Xrotation Yrotation
                  JOINT RightHandRing2
                  {
                    OFFSET -3.7188 -0.188309 -0.2328
                    CHANNELS 3 Zrotation Xrotation Yrotation
                    JOINT RightHandRing3
                    {
                      OFFSET -2.1191 -0.106598 -0.1332
                      CHANNELS 3 Zrotation Xrotation Yrotation
                      End Site
                      {
                        OFFSET -1.8737 -0.2304 -0.0886
                      }
                    }
                  }
                }
                JOINT RightHandPinky1
                {
                  OFFSET -7.9094 -0.601105 -3.4825
                  CHANNELS 3 Zrotation Xrotation Yrotation
                  JOINT RightHandPinky2
                  {
                    OFFSET -2.2874 -0.477005 -0.6314
                    CHANNELS 3 Zrotation Xrotation Yrotation
                    JOINT RightHandPinky3
                    {
                      OFFSET -1.6774 -0.349396 -0.4633
                      CHANNELS 3 Zrotation Xrotation Yrotation
                      End Site
                      {
                        OFFSET -1.4888 -0.4091 -0.3416
                      }
                    }
                  }
                }
                JOINT RightHandThumb1
                {
                  OFFSET -1.833 -1.38751 1.3896
                  CHANNELS 3 Zrotation Xrotation Yrotation
                  JOINT RightHandThumb2
                  {
                    OFFSET -3.41299 -1.12099 2.5732
                    CHANNELS 3 Zrotation Xrotation Yrotation
                    JOINT RightHandThumb3
                    {
                      OFFSET -2.24741 -0.804108 1.6192
                      CHANNELS 3 Zrotation Xrotation Yrotation
                      End Site
                      {
                        OFFSET -1.6527 -0.5689 1.1317
                      }
                    }
                  }
                }
              }
            }
          }
        }
      }
    }
  }
  JOINT RightUpLeg
  {
    OFFSET -9.1966 3.8861 -0.7581
    CHANNELS 3 Zrotation Xrotation Yrotation
    JOINT RightLeg
    {
      OFFSET -0.7359 -41.0265 0
      CHANNELS 3 Zrotation Xrotation Yrotation
      JOINT RightFoot
      {
        OFFSET 0 -40.2855 0
        CHANNELS 3 Zrotation Xrotation Yrotation
        JOINT RightToeBase
        {
          OFFSET 0 -5.6122 11.7359
          CHANNELS 3 Zrotation Xrotation Yrotation
          End Site
          {
            OFFSET 0 0 7.8731
          }
        }
      }
    }
  }
  JOINT LeftUpLeg
  {
    OFFSET 9.1965 3.8864 -0.7581
    CHANNELS 3 Zrotation Xrotation Yrotation
    JOINT LeftLeg
    {
      OFFSET 0.7359 -41.0268 0
      CHANNELS 3 Zrotation Xrotation Yrotation
      JOINT LeftFoot
      {
        OFFSET 0 -40.2855 0
        CHANNELS 3 Zrotation Xrotation Yrotation
        JOINT LeftToeBase
        {
          OFFSET 0 -5.6122 11.7359
          CHANNELS 3 Zrotation Xrotation Yrotation
          End Site
          {
            OFFSET 0 0 7.8731
          }
        }
      }
    }
  }
}
MOTION
Frames:	4
Frame Time:	0.0333333
5.84602e-005 68.8428 3.50346 0 0 -0 0 0 -0 0 0 -0 0 0 -0 0 0 -0 0 0 -0 0 0 -0 0 0 -0 0 0 -0 0 0 -0 0 0 -0 0 0 -0 0 0 -0 0 0 -0 -0.0146107 -8.87603e-005 -2.63497e-007 2.99804e-018 -2.42657e-020 -1.42182e-022 0 0 -0 -0.0187562 -0.001176 5.858e-005 5.06224e-018 3.88251e-019 1.21329e-020 0 0 -0 -0.012269 -0.00324817 0.000675346 -1.74678e-018 3.88251e-019 -0 0 0 -0 0 0 -0 0 0 -0 0 0 -0 0 0 -0 0 0 -0 0 0 -0 0 0 -0 0 0 -0 0 0 -0 0 0 -0 0.0149955 -9.10982e-005 2.64101e-007 -9.69331e-018 1.21329e-020 -4.7394e-023 0 0 -0 0.0189956 -0.00119102 -5.96516e-005 -5.41541e-019 0 2.42657e-020 0 0 -0 0.0122698 -0.00324857 -0.000673756 -2.00796e-019 0 -1.94126e-019 0 0 -0 0 0 -0 0 0 -0 3.39842 1.33031 -0.0637918 -5.65207e-008 0.834868 -0.000436188 -3.39935 -2.16518 -0.0642563 -8.89002e-024 -1.18485e-023 -1.48106e-024 -3.39844 1.35642 0.0640283 -3.18788e-007 0.782166 -0.000588827 3.39931 -2.13858 0.0634662 1.1399e-023 0 -0 
0.99571 35.5564 46.5514 26.2367 -47.2276 -4.16773e-007 -4.8267 1.62828 -2.09407 -9.597 3.42607 -4.0463 -9.59701 3.42607 -4.0463 -11.1175 0.0638535 -7.8799 -0.665033 -1.03693 15.3444 -3.08434 -0.714702 -12.693 -20.4655 -33.2651 13.7808 -7.74655 -16.8546 -7.73284 4.40445 19.0845 -10.2072 2.87012e-006 -5.55813e-008 1.9287e-006 -1.27218e-006 2.69101e-006 6.91673e-007 2.87012e-006 -5.55813e-008 1.9287e-006 2.87012e-006 -5.55813e-008 1.9287e-006 -0.0145303 -8.90497e-005 2.93576e-006 3.33552e-006 1.52926e-006 5.38759e-006 2.87012e-006 -5.55813e-008 1.9287e-006 -0.0187892 -0.00117662 6.11228e-005 2.86988e-006 -5.59157e-008 1.92867e-006 2.87012e-006 -5.55813e-008 1.9287e-006 -0.0122788 -0.00324584 0.000682875 2.87001e-006 -5.58509e-008 1.92863e-006 2.87012e-006 -5.55813e-008 1.9287e-006 -1.27218e-006 2.69101e-006 6.91673e-007 2.87012e-006 -5.55813e-008 1.9287e-006 0.154353 1.89561 -15.4147 0.0984284 16.7858 14.2242 -26.3514 -13.4275 31.64 3.03148 5.57824 1.56685 -4.47266e-015 -3.18055e-015 -7.95139e-016 9.42734e-007 -1.08926e-007 -3.7313e-007 -8.94531e-016 3.18055e-015 7.95139e-016 -4.47266e-015 -3.18055e-015 -7.95139e-016 0.0150179 -9.00244e-005 -4.91125e-007 -2.81726e-007 -6.2362e-007 2.21734e-008 -4.47266e-015 -3.18055e-015 -7.95139e-016 0.0189384 -0.00118759 -5.98033e-005 -2.81254e-007 -6.23752e-007 2.21903e-008 -4.47266e-015 -3.18055e-015 -7.95139e-016 0.0122792 -0.0032495 -0.000677307 -3.97569e-016 0 -1.19271e-015 -4.47266e-015 -3.18055e-015 -7.95139e-016 9.42734e-007 -1.08926e-007 -3.7313e-007 -8.94531e-016 3.18055e-015 7.95139e-016 -19.1964 -31.5078 -21.7794 4.25876 41.6991 -8.16988 7.01921 2.7524 -2.08293 -9.09827e-007 2.94696e-006 -1.12869e-006 -8.78269 -24.8617 26.4099 2.7599 51.77 -2.17987 5.99718 -1.99081 -4.00506 -4.43544e-007 -4.03609e-009 -5.51931e-008 
-1.88293 7.53437 79.2611 48.1179 -86.6151 1.8822e-005 -8.75213 2.61574 -3.93144 -17.3372 5.79403 -7.43215 -17.3372 5.79403 -7.43215 -20.3764 0.170797 -14.4297 -0.838152 -1.7083 28.1531 -5.89246 -1.23424 -23.2828 -17.0395 -55.8134 39.7433 -18.1525 -30.2156 -15.7541 14.1725 33.6988 -21.4112 4.43242e-006 -4.99147e-007 -3.68026e-006 3.97569e-016 1.39149e-015 4.77083e-015 4.09574e-006 4.04824e-007 -2.49986e-006 4.43242e-006 -4.99147e-007 -3.68026e-006 -0.0145928 -8.59375e-005 1.82177e-006 6.01094e-006 -5.36352e-007 -2.38409e-006 4.43242e-006 -4.99147e-007 -3.68026e-006 -0.0187456 -0.0011775 6.09405e-005 4.09578e-006 4.05235e-007 -2.49983e-006 4.43242e-006 -4.99147e-007 -3.68026e-006 -0.0122798 -0.00324788 0.000675598 4.09572e-006 4.05078e-007 -2.49993e-006 4.43242e-006 -4.99147e-007 -3.68026e-006 3.97569e-016 1.39149e-015 4.77083e-015 4.09574e-006 4.04824e-007 -2.49986e-006 1.03363 3.176 -28.3019 -6.7458 28.453 28.6753 -38.7562 -15.4815 59.6484 5.32299 10.2214 2.90613 -9.93923e-017 -7.95139e-016 -1.98785e-016 2.67188e-009 3.16175e-010 1.06682e-007 -3.72721e-017 1.19271e-015 -0 -9.93923e-017 -7.95139e-016 -1.98785e-016 0.0149938 -9.0979e-005 3.32059e-007 3.72721e-017 3.97569e-016 -0 -9.93923e-017 -7.95139e-016 -1.98785e-016 0.0189955 -0.00119103 -5.99053e-005 3.72721e-017 -3.97569e-016 1.98785e-016 -9.93923e-017 -7.95139e-016 -1.98785e-016 0.0122569 -0.00324477 -0.000676567 6.21202e-017 3.97569e-016 -1.98785e-016 -9.93923e-017 -7.95139e-016 -1.98785e-016 2.67188e-009 3.16175e-010 1.06682e-007 -3.72721e-017 1.19271e-015 -0 -64.7283 -48.4778 -56.5546 36.342 74.3804 -40.2759 16.1931 6.81115 -3.73691 -2.98075e-006 -3.39359e-007 -3.78034e-006 3.71739 -34.8182 56.767 106.144 85.2612 -104.375 8.47822 -0.0303111 -5.71203 -8.12457e-008 6.12592e-007 4.01192e-007 
-2.91798 0.0530295 86.9837 -126.401 -83.518 180 -9.72082 2.80793 -4.40036 -19.2408 6.31162 -8.28056 -19.2408 6.31161 -8.28057 -22.6877 0.450336 -15.9715 -0.961769 -1.70525 31.3735 -6.62669 -1.346 -25.9363 -10.5757 -59.3106 51.0193 -21.4657 -33.3673 -18.1933 17.9603 37.3361 -25.079 -6.36111e-015 -1.0138e-014 -9.54166e-015 -6.36111e-015 -2.5842e-015 -9.54166e-015 -7.95139e-015 -4.96962e-015 -9.54166e-015 -6.36111e-015 -1.0138e-014 -9.54166e-015 -0.0146125 -8.93378e-005 5.97667e-007 -1.59028e-015 -1.31198e-014 -0 -6.36111e-015 -1.0138e-014 -9.54166e-015 -0.0187525 -0.0011721 5.33009e-005 1.59028e-015 -2.78299e-015 -3.18055e-015 -6.36111e-015 -1.0138e-014 -9.54166e-015 -0.0122278 -0.00323343 0.000677475 -1.59028e-015 1.0138e-014 -0 -6.36111e-015 -1.0138e-014 -9.54166e-015 -6.36111e-015 -2.5842e-015 -9.54166e-015 -7.95139e-015 -4.96962e-015 -9.54166e-015 1.3476 3.42521 -31.5359 -9.52558 30.7531 32.8631 -41.4303 -14.0786 66.3395 5.86227 11.3822 3.24975 -2.42269e-016 0 -3.97569e-016 -1.83255e-015 -1.98785e-016 -1.98785e-016 -1.84497e-015 0 -1.98785e-016 -2.42269e-016 0 -3.97569e-016 0.0149982 -9.13024e-005 9.30963e-008 1.73937e-015 -3.97569e-016 -1.98785e-016 -2.42269e-016 0 -3.97569e-016 0.0190099 -0.00119164 -5.98543e-005 -5.37169e-007 -2.46503e-008 1.93422e-008 -2.42269e-016 0 -3.97569e-016 0.0122655 -0.00324722 -0.000675438 3.49116e-015 7.95139e-016 -1.98785e-016 -2.42269e-016 0 -3.97569e-016 -1.83255e-015 -1.98785e-016 -1.98785e-016 -1.84497e-015 0 -1.98785e-016 -79.4908 -49.1796 -67.6741 68.8675 78.6441 -72.7231 18.3642 8.19794 -4.19873 7.26793e-006 -6.1413e-006 1.45622e-006 8.38821 -34.7392 65.0519 155.562 77.6664 -152.926 9.11955 0.471323 -6.23243 -1.31854e-006 9.24818e-007 2.03665e-006 
